<?xml version="1.0" encoding="UTF-8" standalone="no"?>
<svg
   width="2172"
   height="724"
   viewBox="0 0 2172 724"
   role="img"
   aria-labelledby="title desc"
   version="1.1"
   id="svg41"
   xmlns="http://www.w3.org/2000/svg"
   xmlns:svg="http://www.w3.org/2000/svg">
  <title
     id="title">Savdo Soft logo</title>
  <desc
     id="desc">Transparent SVG logo for Savdo Soft, an income, expense and accounting platform.</desc>
  <defs
     id="defs10">
    <linearGradient
       id="blueGrad"
       x1="0"
       y1="0"
       x2="1"
       y2="1">
      <stop
         offset="0"
         stop-color="#075BDF"
         id="stop1" />
      <stop
         offset="1"
         stop-color="#073D9F"
         id="stop2" />
    </linearGradient>
    <linearGradient
       id="tealGrad"
       x1="0"
       y1="0"
       x2="1"
       y2="1">
      <stop
         offset="0"
         stop-color="#05B9B0"
         id="stop3" />
      <stop
         offset="1"
         stop-color="#008D88"
         id="stop4" />
    </linearGradient>
    <linearGradient
       id="brandGrad"
       x1="0"
       y1="0"
       x2="1"
       y2="0">
      <stop
         offset="0"
         stop-color="#0B60E2"
         id="stop5" />
      <stop
         offset="1"
         stop-color="#073D9F"
         id="stop6" />
    </linearGradient>
    <linearGradient
       id="softGrad"
       x1="0"
       y1="0"
       x2="1"
       y2="0">
      <stop
         offset="0"
         stop-color="#05B9B0"
         id="stop7" />
      <stop
         offset="1"
         stop-color="#008D88"
         id="stop8" />
    </linearGradient>
    <linearGradient
       id="orangeGrad"
       x1="0"
       y1="0"
       x2="1"
       y2="1">
      <stop
         offset="0"
         stop-color="#FF9A2E"
         id="stop9" />
      <stop
         offset="1"
         stop-color="#F16C1B"
         id="stop10" />
    </linearGradient>
    <filter
       id="softShadow"
       x="0"
       y="-0.019189765"
       width="1.0349076"
       height="1.0447761">
      <feDropShadow
         dx="0"
         dy="10"
         stdDeviation="12"
         flood-color="#0A4DB3"
         flood-opacity="0.12" />
    </filter>
    <style
       id="style10">
      .wordmark { font-family: 'Inter', 'Poppins', 'Montserrat', 'Segoe UI', Arial, sans-serif; font-weight: 800; letter-spacing: -8px; }
      .round { stroke-linecap: round; stroke-linejoin: round; }
    </style>
  </defs>
  <!-- Left digital pixels -->
  <g
     opacity="0.95"
     id="g16">
    <rect
       x="126"
       y="314"
       width="16"
       height="16"
       rx="2"
       fill="#075BDF"
       id="rect10" />
    <rect
       x="166"
       y="286"
       width="34"
       height="34"
       rx="3"
       fill="#075BDF"
       id="rect11" />
    <rect
       x="178"
       y="350"
       width="28"
       height="28"
       rx="3"
       fill="#075BDF"
       id="rect12" />
    <rect
       x="222"
       y="312"
       width="18"
       height="18"
       rx="2"
       fill="#1E78EA"
       id="rect13" />
    <rect
       x="246"
       y="364"
       width="22"
       height="22"
       rx="3"
       fill="#075BDF"
       id="rect14" />
    <rect
       x="122"
       y="374"
       width="13"
       height="13"
       rx="2"
       fill="#1E78EA"
       id="rect15" />
    <rect
       x="218"
       y="402"
       width="18"
       height="18"
       rx="2"
       fill="#1E78EA"
       id="rect16" />
  </g>
  <!-- Accounting / commerce icon -->
  <g
     filter="url(#softShadow)"
     id="g36">
    <!-- orange page curl accent -->
    <path
       d="M238 462 C269 499 306 516 356 513 C318 538 279 555 238 552 C226 520 224 489 238 462Z"
       fill="url(#orangeGrad)"
       id="path16" />
    <!-- main rounded ledger body -->
    <rect
       x="250"
       y="238"
       width="322"
       height="325"
       rx="52"
       fill="#FFFFFF"
       stroke="url(#blueGrad)"
       stroke-width="24"
       id="rect17" />
    <path
       d="M279 557 C317 534 374 534 411 557 C447 534 515 534 553 557"
       fill="none"
       stroke="url(#tealGrad)"
       stroke-width="22"
       class="round"
       id="path17" />
    <path
       d="M274 557 H553"
       stroke="url(#blueGrad)"
       stroke-width="18"
       class="round"
       id="path18" />
    <!-- bag handle -->
    <path
       d="M328 246 V194 C328 134 376 94 414 94 C452 94 500 134 500 194 V246"
       fill="none"
       stroke="url(#blueGrad)"
       stroke-width="18"
       class="round"
       id="path19" />
    <circle
       cx="328"
       cy="248"
       r="13"
       fill="#FFFFFF"
       stroke="url(#blueGrad)"
       stroke-width="8"
       id="circle19" />
    <circle
       cx="500"
       cy="248"
       r="13"
       fill="#FFFFFF"
       stroke="url(#blueGrad)"
       stroke-width="8"
       id="circle20" />
    <!-- divider -->
    <line
       x1="412"
       y1="291"
       x2="412"
       y2="510"
       stroke="#0A7EDC"
       stroke-width="5"
       stroke-linecap="round"
       opacity="0.85"
       id="line20" />
    <!-- income arrow up -->
    <path
       d="M332 381 V323"
       stroke="url(#blueGrad)"
       stroke-width="22"
       class="round"
       id="path20" />
    <path
       d="M332 306 L292 346 H372 Z"
       fill="url(#blueGrad)"
       id="path21" />
    <!-- expense arrow down -->
    <path
       d="M492 318 V377"
       stroke="url(#tealGrad)"
       stroke-width="22"
       class="round"
       id="path22" />
    <path
       d="M492 394 L452 354 H532 Z"
       fill="url(#tealGrad)"
       id="path23" />
    <!-- growth bars -->
    <rect
       x="288"
       y="465"
       width="28"
       height="45"
       rx="4"
       fill="#52BEEA"
       id="rect23" />
    <rect
       x="325"
       y="438"
       width="28"
       height="72"
       rx="4"
       fill="#218DE7"
       id="rect24" />
    <rect
       x="362"
       y="400"
       width="28"
       height="110"
       rx="4"
       fill="#0575D8"
       id="rect25" />
    <!-- calculator -->
    <rect
       x="445"
       y="396"
       width="91"
       height="115"
       rx="18"
       fill="url(#tealGrad)"
       id="rect26" />
    <g
       fill="#E9FFFD"
       id="g35">
      <rect
         x="462"
         y="414"
         width="18"
         height="18"
         rx="4"
         id="rect27" />
      <rect
         x="489"
         y="414"
         width="18"
         height="18"
         rx="4"
         id="rect28" />
      <rect
         x="516"
         y="414"
         width="18"
         height="18"
         rx="4"
         id="rect29" />
      <rect
         x="462"
         y="445"
         width="18"
         height="18"
         rx="4"
         id="rect30" />
      <rect
         x="489"
         y="445"
         width="18"
         height="18"
         rx="4"
         id="rect31" />
      <rect
         x="516"
         y="445"
         width="18"
         height="18"
         rx="4"
         id="rect32" />
      <rect
         x="462"
         y="476"
         width="18"
         height="18"
         rx="4"
         id="rect33" />
      <rect
         x="489"
         y="476"
         width="18"
         height="18"
         rx="4"
         id="rect34" />
      <rect
         x="516"
         y="476"
         width="18"
         height="18"
         rx="4"
         id="rect35" />
    </g>
  </g>
  <!-- Tech circuit lines -->
  <g
     fill="none"
     stroke="url(#tealGrad)"
     stroke-width="7"
     class="round"
     id="g40">
    <path
       d="M572 358 H626 L650 334 H682"
       id="path36" />
    <path
       d="M572 405 H674"
       id="path37" />
    <path
       d="M572 452 H627 L651 476 H681"
       id="path38" />
    <circle
       cx="696"
       cy="334"
       r="14"
       fill="#FFFFFF"
       stroke="url(#tealGrad)"
       stroke-width="7"
       id="circle38" />
    <circle
       cx="690"
       cy="405"
       r="14"
       fill="#FFFFFF"
       stroke="url(#tealGrad)"
       stroke-width="7"
       id="circle39" />
    <circle
       cx="696"
       cy="476"
       r="14"
       fill="#FFFFFF"
       stroke="url(#tealGrad)"
       stroke-width="7"
       id="circle40" />
  </g>
  <!-- Wordmark -->
  <g
     class="wordmark"
     id="g41">
    <path
       d="m 793.43164,445.83594 c 33.87305,0 54.06836,-15.51367 54.06836,-41.49219 0,-21.84766 -15.33008,-35.06641 -41.76758,-40.84961 l -11.8418,-2.75391 c -12.20898,-2.7539 -20.19531,-6.79296 -20.19531,-15.23828 0,-7.61914 6.70117,-13.21875 19.64453,-13.21875 13.03516,0 20.28711,5.78321 21.20508,15.69727 h 31.11914 c -0.36719,-25.33594 -20.5625,-42.59375 -52.23242,-42.59375 -31.02734,0 -53.24219,16.98242 -53.24219,42.31836 0,20.5625 14.32032,32.40429 37.91211,37.82031 l 14.50391,3.39648 c 14.96289,3.39649 22.12305,7.52735 22.12305,15.33008 0,8.72071 -8.26172,14.6875 -21.66407,14.6875 -14.77929,0 -24.60156,-6.79297 -25.33593,-20.10351 h -31.11915 c 0.55079,31.57812 22.58204,47 56.82227,47 z m 91.9668,0 c 14.22851,0 24.14258,-5.69141 29.74218,-16.24805 h 0.82618 V 444 h 30.10937 v -69.67383 c 0,-22.03125 -20.10351,-34.24023 -45.62305,-34.24023 -25.70312,0 -41.85937,12.02539 -45.89843,29.55859 l 29.00781,3.76367 c 1.74414,-6.42578 7.71094,-10.55664 16.61523,-10.55664 8.72071,0 13.95313,4.03906 13.95313,11.10742 v 0.36719 c 0,6.33399 -6.97656,7.61914 -24.32617,9.08789 -20.7461,1.74414 -38.1875,9.36328 -38.1875,32.12891 0,20.28711 14.04492,30.29297 33.78125,30.29297 z m 9.73047,-21.20508 c -7.71094,0 -13.21875,-3.67188 -13.21875,-10.55664 0,-6.79297 5.32421,-10.83203 14.77929,-12.20899 5.9668,-0.91796 14.04492,-2.29492 17.7168,-4.22265 v 9.82226 c 0,10.09766 -8.53711,17.16602 -19.27734,17.16602 z M 984.43359,444 h 37.08591 l 37.3614,-102.62891 h -33.4141 l -15.0547,50.21289 c -2.7539,9.27149 -4.8652,18.54297 -6.8848,28.45704 -2.1113,-9.91407 -4.31441,-19.27735 -7.16011,-28.45704 l -15.33008,-50.21289 h -33.78125 z m 112.98831,1.46875 c 15.6054,0 24.7851,-8.8125 28.8242,-18.08398 h 1.1016 V 444 h 31.5781 V 307.22266 h -31.9453 v 51.77343 h -0.7344 c -3.8555,-9.27148 -12.668,-18.91015 -29.0996,-18.91015 -21.5723,0 -40.8496,16.70703 -40.8496,52.6914 0,34.79102 18.2676,52.69141 41.125,52.69141 z M 1108.3457,420.5 c -12.3926,0 -19.0937,-11.01563 -19.0937,-27.72266 0,-16.70703 6.7011,-27.63086 19.0937,-27.63086 12.209,0 19.3691,10.64844 19.3691,27.63086 0,16.79883 -7.2519,27.72266 -19.3691,27.72266 z m 111.4277,25.42773 c 32.0371,0 51.4981,-21.29687 51.4981,-52.875 0,-31.66992 -19.461,-52.96679 -51.4981,-52.96679 -32.1289,0 -51.5898,21.29687 -51.5898,52.96679 0,31.57813 19.4609,52.875 51.5898,52.875 z m 0,-24.50976 c -12.3007,0 -18.9101,-11.47461 -18.9101,-28.54883 0,-17.16602 6.6094,-28.27344 18.9101,-28.27344 12.3008,0 18.9102,11.10742 18.9102,28.27344 0,17.07422 -6.6094,28.54883 -18.9102,28.54883 z"
       id="text40"
       style="font-size:188px;fill:url(#brandGrad)"
       aria-label="Savdo" />
    <path
       d="m 1423.4316,445.83594 c 33.8731,0 54.0684,-15.51367 54.0684,-41.49219 0,-21.84766 -15.3301,-35.06641 -41.7676,-40.84961 l -11.8418,-2.75391 c -12.209,-2.7539 -20.1953,-6.79296 -20.1953,-15.23828 0,-7.61914 6.7012,-13.21875 19.6445,-13.21875 13.0352,0 20.2872,5.78321 21.2051,15.69727 h 31.1192 c -0.3672,-25.33594 -20.5625,-42.59375 -52.2325,-42.59375 -31.0273,0 -53.2421,16.98242 -53.2421,42.31836 0,20.5625 14.3203,32.40429 37.9121,37.82031 l 14.5039,3.39648 c 14.9629,3.39649 22.123,7.52735 22.123,15.33008 0,8.72071 -8.2617,14.6875 -21.664,14.6875 -14.7793,0 -24.6016,-6.79297 -25.336,-20.10351 h -31.1191 c 0.5508,31.57812 22.582,47 56.8222,47 z m 110.877,0.0918 c 32.0371,0 51.498,-21.29687 51.498,-52.875 0,-31.66992 -19.4609,-52.96679 -51.498,-52.96679 -32.1289,0 -51.5898,21.29687 -51.5898,52.96679 0,31.57813 19.4609,52.875 51.5898,52.875 z m 0,-24.50976 c -12.3008,0 -18.9102,-11.47461 -18.9102,-28.54883 0,-17.16602 6.6094,-28.27344 18.9102,-28.27344 12.3008,0 18.9102,11.10742 18.9102,28.27344 0,17.07422 -6.6094,28.54883 -18.9102,28.54883 z m 121.709,-80.04688 h -20.5625 v -5.7832 c 0,-6.05859 2.5703,-9.73047 10.1894,-9.73047 3.2129,0 6.8848,0.64258 9.2715,1.28516 l 5.1406,-23.40821 c -3.7636,-1.10156 -12.4843,-2.9375 -21.5722,-2.9375 -20.5625,0 -34.8828,11.56641 -34.8828,35.06641 v 5.50781 h -17.2578 v 23.77539 h 17.2578 V 444 h 31.8535 v -78.85352 h 20.5625 z m 55.6152,0 h -18.4512 v -24.41797 h -32.0371 v 24.41797 h -13.5859 v 23.77539 h 13.5859 v 50.30469 c 0,19.55274 11.4746,30.01758 33.2305,30.01758 6.0586,0 12.8516,-0.64258 20.0117,-2.66211 l -4.1308,-23.31641 c -1.7442,0.45899 -6.7012,1.10157 -8.9043,1.10157 -5.7832,0 -8.17,-2.57032 -8.17,-7.98633 v -47.45899 h 18.4512 z"
       id="text41"
       style="font-size:188px;fill:url(#softGrad)"
       aria-label="Soft" />
  </g>
</svg>
